<?xml version="1.0" encoding="UTF-8" standalone="no"?>
<!DOCTYPE svg PUBLIC "-//W3C//DTD SVG 1.1//EN"
 "http://www.w3.org/Graphics/SVG/1.1/DTD/svg11.dtd">
<!-- Generated by graphviz version 2.40.1 (20161225.0304)
 -->
<!-- Title: G Pages: 1 -->
<svg width="614pt" height="433pt"
 viewBox="0.00 0.00 614.00 433.00" xmlns="http://www.w3.org/2000/svg" xmlns:xlink="http://www.w3.org/1999/xlink">
<g id="graph0" class="graph" transform="scale(1 1) rotate(0) translate(4 429)">
<title>G</title>
<polygon fill="#ffffff" stroke="transparent" points="-4,4 -4,-429 610,-429 610,4 -4,4"/>
<text text-anchor="middle" x="303" y="-7.8" font-family="Times,serif" font-size="14.00" fill="#000000">Binary Search Tree</text>
<!-- 63 -->
<g id="node1" class="node">
<title>63</title>
<polygon fill="none" stroke="#000000" points="288,-388.5 288,-424.5 374,-424.5 374,-388.5 288,-388.5"/>
<text text-anchor="middle" x="298" y="-402.8" font-family="Times,serif" font-size="14.00" fill="#000000"> </text>
<polyline fill="none" stroke="#000000" points="308,-388.5 308,-424.5 "/>
<text text-anchor="middle" x="331" y="-402.8" font-family="Times,serif" font-size="14.00" fill="#000000">63(1)</text>
<polyline fill="none" stroke="#000000" points="354,-388.5 354,-424.5 "/>
<text text-anchor="middle" x="364" y="-402.8" font-family="Times,serif" font-size="14.00" fill="#000000"> </text>
</g>
<!-- 16 -->
<g id="node2" class="node">
<title>16</title>
<polygon fill="none" stroke="#000000" points="166,-315.5 166,-351.5 252,-351.5 252,-315.5 166,-315.5"/>
<text text-anchor="middle" x="176" y="-329.8" font-family="Times,serif" font-size="14.00" fill="#000000"> </text>
<polyline fill="none" stroke="#000000" points="186,-315.5 186,-351.5 "/>
<text text-anchor="middle" x="209" y="-329.8" font-family="Times,serif" font-size="14.00" fill="#000000">16(1)</text>
<polyline fill="none" stroke="#000000" points="232,-315.5 232,-351.5 "/>
<text text-anchor="middle" x="242" y="-329.8" font-family="Times,serif" font-size="14.00" fill="#000000"> </text>
</g>
<!-- 63&#45;&gt;16 -->
<g id="edge1" class="edge">
<title>63:f0&#45;&gt;16:f1</title>
<path fill="none" stroke="#000000" d="M298,-388.5C298,-349.6784 224.9053,-386.0153 211.2,-361.286"/>
<polygon fill="#000000" stroke="#000000" points="214.6082,-360.4888 209,-351.5 207.7787,-362.0242 214.6082,-360.4888"/>
</g>
<!-- 78 -->
<g id="node3" class="node">
<title>78</title>
<polygon fill="none" stroke="#000000" points="411,-315.5 411,-351.5 497,-351.5 497,-315.5 411,-315.5"/>
<text text-anchor="middle" x="421" y="-329.8" font-family="Times,serif" font-size="14.00" fill="#000000"> </text>
<polyline fill="none" stroke="#000000" points="431,-315.5 431,-351.5 "/>
<text text-anchor="middle" x="454" y="-329.8" font-family="Times,serif" font-size="14.00" fill="#000000">78(1)</text>
<polyline fill="none" stroke="#000000" points="477,-315.5 477,-351.5 "/>
<text text-anchor="middle" x="487" y="-329.8" font-family="Times,serif" font-size="14.00" fill="#000000"> </text>
</g>
<!-- 63&#45;&gt;78 -->
<g id="edge2" class="edge">
<title>63:f2&#45;&gt;78:f1</title>
<path fill="none" stroke="#000000" d="M364,-388.5C364,-349.3062 437.916,-386.2829 451.7753,-361.371"/>
<polygon fill="#000000" stroke="#000000" points="455.2156,-362.0249 454,-351.5 448.3869,-360.4857 455.2156,-362.0249"/>
</g>
<!-- 11 -->
<g id="node4" class="node">
<title>11</title>
<polygon fill="none" stroke="#000000" points="52,-242.5 52,-278.5 138,-278.5 138,-242.5 52,-242.5"/>
<text text-anchor="middle" x="62" y="-256.8" font-family="Times,serif" font-size="14.00" fill="#000000"> </text>
<polyline fill="none" stroke="#000000" points="72,-242.5 72,-278.5 "/>
<text text-anchor="middle" x="95" y="-256.8" font-family="Times,serif" font-size="14.00" fill="#000000">11(1)</text>
<polyline fill="none" stroke="#000000" points="118,-242.5 118,-278.5 "/>
<text text-anchor="middle" x="128" y="-256.8" font-family="Times,serif" font-size="14.00" fill="#000000"> </text>
</g>
<!-- 16&#45;&gt;11 -->
<g id="edge3" class="edge">
<title>16:f0&#45;&gt;11:f1</title>
<path fill="none" stroke="#000000" d="M176,-315.5C176,-280.0962 111.1849,-310.0949 97.513,-288.487"/>
<polygon fill="#000000" stroke="#000000" points="100.8345,-287.3436 95,-278.5 94.0461,-289.0518 100.8345,-287.3436"/>
</g>
<!-- 32 -->
<g id="node5" class="node">
<title>32</title>
<polygon fill="none" stroke="#000000" points="199,-242.5 199,-278.5 285,-278.5 285,-242.5 199,-242.5"/>
<text text-anchor="middle" x="209" y="-256.8" font-family="Times,serif" font-size="14.00" fill="#000000"> </text>
<polyline fill="none" stroke="#000000" points="219,-242.5 219,-278.5 "/>
<text text-anchor="middle" x="242" y="-256.8" font-family="Times,serif" font-size="14.00" fill="#000000">32(1)</text>
<polyline fill="none" stroke="#000000" points="265,-242.5 265,-278.5 "/>
<text text-anchor="middle" x="275" y="-256.8" font-family="Times,serif" font-size="14.00" fill="#000000"> </text>
</g>
<!-- 16&#45;&gt;32 -->
<g id="edge4" class="edge">
<title>16:f2&#45;&gt;32:f1</title>
<path fill="none" stroke="#000000" d="M242,-315.5C242,-303.0382 242,-297.6592 242,-288.6281"/>
<polygon fill="#000000" stroke="#000000" points="245.5001,-288.5 242,-278.5 238.5001,-288.5 245.5001,-288.5"/>
</g>
<!-- 77 -->
<g id="node12" class="node">
<title>77</title>
<polygon fill="none" stroke="#000000" points="378,-242.5 378,-278.5 464,-278.5 464,-242.5 378,-242.5"/>
<text text-anchor="middle" x="388" y="-256.8" font-family="Times,serif" font-size="14.00" fill="#000000"> </text>
<polyline fill="none" stroke="#000000" points="398,-242.5 398,-278.5 "/>
<text text-anchor="middle" x="421" y="-256.8" font-family="Times,serif" font-size="14.00" fill="#000000">77(1)</text>
<polyline fill="none" stroke="#000000" points="444,-242.5 444,-278.5 "/>
<text text-anchor="middle" x="454" y="-256.8" font-family="Times,serif" font-size="14.00" fill="#000000"> </text>
</g>
<!-- 78&#45;&gt;77 -->
<g id="edge11" class="edge">
<title>78:f0&#45;&gt;77:f1</title>
<path fill="none" stroke="#000000" d="M421,-315.5C421,-303.0382 421,-297.6592 421,-288.6281"/>
<polygon fill="#000000" stroke="#000000" points="424.5001,-288.5 421,-278.5 417.5001,-288.5 424.5001,-288.5"/>
</g>
<!-- 97 -->
<g id="node13" class="node">
<title>97</title>
<polygon fill="none" stroke="#000000" points="482,-242.5 482,-278.5 568,-278.5 568,-242.5 482,-242.5"/>
<text text-anchor="middle" x="492" y="-256.8" font-family="Times,serif" font-size="14.00" fill="#000000"> </text>
<polyline fill="none" stroke="#000000" points="502,-242.5 502,-278.5 "/>
<text text-anchor="middle" x="525" y="-256.8" font-family="Times,serif" font-size="14.00" fill="#000000">97(1)</text>
<polyline fill="none" stroke="#000000" points="548,-242.5 548,-278.5 "/>
<text text-anchor="middle" x="558" y="-256.8" font-family="Times,serif" font-size="14.00" fill="#000000"> </text>
</g>
<!-- 78&#45;&gt;97 -->
<g id="edge12" class="edge">
<title>78:f2&#45;&gt;97:f1</title>
<path fill="none" stroke="#000000" d="M487,-315.5C487,-296.1633 512.5707,-299.5152 521.7601,-288.3323"/>
<polygon fill="#000000" stroke="#000000" points="525.1945,-289.0931 525,-278.5 518.5461,-286.9023 525.1945,-289.0931"/>
</g>
<!-- 15 -->
<g id="node6" class="node">
<title>15</title>
<polygon fill="none" stroke="#000000" points="43,-169.5 43,-205.5 129,-205.5 129,-169.5 43,-169.5"/>
<text text-anchor="middle" x="53" y="-183.8" font-family="Times,serif" font-size="14.00" fill="#000000"> </text>
<polyline fill="none" stroke="#000000" points="63,-169.5 63,-205.5 "/>
<text text-anchor="middle" x="86" y="-183.8" font-family="Times,serif" font-size="14.00" fill="#000000">15(1)</text>
<polyline fill="none" stroke="#000000" points="109,-169.5 109,-205.5 "/>
<text text-anchor="middle" x="119" y="-183.8" font-family="Times,serif" font-size="14.00" fill="#000000"> </text>
</g>
<!-- 11&#45;&gt;15 -->
<g id="edge5" class="edge">
<title>11:f2&#45;&gt;15:f1</title>
<path fill="none" stroke="#000000" d="M128,-242.5C128,-221.7044 98.6508,-227.205 89.0205,-215.0378"/>
<polygon fill="#000000" stroke="#000000" points="92.3559,-213.9766 86,-205.5 85.6825,-216.0901 92.3559,-213.9766"/>
</g>
<!-- 28 -->
<g id="node8" class="node">
<title>28</title>
<polygon fill="none" stroke="#000000" points="166,-169.5 166,-205.5 252,-205.5 252,-169.5 166,-169.5"/>
<text text-anchor="middle" x="176" y="-183.8" font-family="Times,serif" font-size="14.00" fill="#000000"> </text>
<polyline fill="none" stroke="#000000" points="186,-169.5 186,-205.5 "/>
<text text-anchor="middle" x="209" y="-183.8" font-family="Times,serif" font-size="14.00" fill="#000000">28(1)</text>
<polyline fill="none" stroke="#000000" points="232,-169.5 232,-205.5 "/>
<text text-anchor="middle" x="242" y="-183.8" font-family="Times,serif" font-size="14.00" fill="#000000"> </text>
</g>
<!-- 32&#45;&gt;28 -->
<g id="edge7" class="edge">
<title>32:f0&#45;&gt;28:f1</title>
<path fill="none" stroke="#000000" d="M209,-242.5C209,-230.0382 209,-224.6592 209,-215.6281"/>
<polygon fill="#000000" stroke="#000000" points="212.5001,-215.5 209,-205.5 205.5001,-215.5 212.5001,-215.5"/>
</g>
<!-- 13 -->
<g id="node7" class="node">
<title>13</title>
<polygon fill="none" stroke="#000000" points="0,-96.5 0,-132.5 86,-132.5 86,-96.5 0,-96.5"/>
<text text-anchor="middle" x="10" y="-110.8" font-family="Times,serif" font-size="14.00" fill="#000000"> </text>
<polyline fill="none" stroke="#000000" points="20,-96.5 20,-132.5 "/>
<text text-anchor="middle" x="43" y="-110.8" font-family="Times,serif" font-size="14.00" fill="#000000">13(1)</text>
<polyline fill="none" stroke="#000000" points="66,-96.5 66,-132.5 "/>
<text text-anchor="middle" x="76" y="-110.8" font-family="Times,serif" font-size="14.00" fill="#000000"> </text>
</g>
<!-- 15&#45;&gt;13 -->
<g id="edge6" class="edge">
<title>15:f0&#45;&gt;13:f1</title>
<path fill="none" stroke="#000000" d="M53,-169.5C53,-156.458 47.1382,-151.6831 44.3905,-142.5163"/>
<polygon fill="#000000" stroke="#000000" points="47.8418,-141.9237 43,-132.5 40.9083,-142.8863 47.8418,-141.9237"/>
</g>
<!-- 18 -->
<g id="node9" class="node">
<title>18</title>
<polygon fill="none" stroke="#000000" points="104,-96.5 104,-132.5 190,-132.5 190,-96.5 104,-96.5"/>
<text text-anchor="middle" x="114" y="-110.8" font-family="Times,serif" font-size="14.00" fill="#000000"> </text>
<polyline fill="none" stroke="#000000" points="124,-96.5 124,-132.5 "/>
<text text-anchor="middle" x="147" y="-110.8" font-family="Times,serif" font-size="14.00" fill="#000000">18(2)</text>
<polyline fill="none" stroke="#000000" points="170,-96.5 170,-132.5 "/>
<text text-anchor="middle" x="180" y="-110.8" font-family="Times,serif" font-size="14.00" fill="#000000"> </text>
</g>
<!-- 28&#45;&gt;18 -->
<g id="edge8" class="edge">
<title>28:f0&#45;&gt;18:f1</title>
<path fill="none" stroke="#000000" d="M176,-169.5C176,-152.6872 157.2219,-152.5033 149.8867,-142.1861"/>
<polygon fill="#000000" stroke="#000000" points="153.2104,-141.0838 147,-132.5 146.5019,-143.0831 153.2104,-141.0838"/>
</g>
<!-- 30 -->
<g id="node10" class="node">
<title>30</title>
<polygon fill="none" stroke="#000000" points="208,-96.5 208,-132.5 294,-132.5 294,-96.5 208,-96.5"/>
<text text-anchor="middle" x="218" y="-110.8" font-family="Times,serif" font-size="14.00" fill="#000000"> </text>
<polyline fill="none" stroke="#000000" points="228,-96.5 228,-132.5 "/>
<text text-anchor="middle" x="251" y="-110.8" font-family="Times,serif" font-size="14.00" fill="#000000">30(1)</text>
<polyline fill="none" stroke="#000000" points="274,-96.5 274,-132.5 "/>
<text text-anchor="middle" x="284" y="-110.8" font-family="Times,serif" font-size="14.00" fill="#000000"> </text>
</g>
<!-- 28&#45;&gt;30 -->
<g id="edge9" class="edge">
<title>28:f2&#45;&gt;30:f1</title>
<path fill="none" stroke="#000000" d="M242,-169.5C242,-156.5426 247.2756,-151.658 249.7486,-142.4847"/>
<polygon fill="#000000" stroke="#000000" points="253.2291,-142.8577 251,-132.5 246.2835,-141.9871 253.2291,-142.8577"/>
</g>
<!-- 23 -->
<g id="node11" class="node">
<title>23</title>
<polygon fill="none" stroke="#000000" points="137,-23.5 137,-59.5 223,-59.5 223,-23.5 137,-23.5"/>
<text text-anchor="middle" x="147" y="-37.8" font-family="Times,serif" font-size="14.00" fill="#000000"> </text>
<polyline fill="none" stroke="#000000" points="157,-23.5 157,-59.5 "/>
<text text-anchor="middle" x="180" y="-37.8" font-family="Times,serif" font-size="14.00" fill="#000000">23(1)</text>
<polyline fill="none" stroke="#000000" points="203,-23.5 203,-59.5 "/>
<text text-anchor="middle" x="213" y="-37.8" font-family="Times,serif" font-size="14.00" fill="#000000"> </text>
</g>
<!-- 18&#45;&gt;23 -->
<g id="edge10" class="edge">
<title>18:f2&#45;&gt;23:f1</title>
<path fill="none" stroke="#000000" d="M180,-96.5C180,-84.0382 180,-78.6592 180,-69.6281"/>
<polygon fill="#000000" stroke="#000000" points="183.5001,-69.5 180,-59.5 176.5001,-69.5 183.5001,-69.5"/>
</g>
<!-- 74 -->
<g id="node14" class="node">
<title>74</title>
<polygon fill="none" stroke="#000000" points="345,-169.5 345,-205.5 431,-205.5 431,-169.5 345,-169.5"/>
<text text-anchor="middle" x="355" y="-183.8" font-family="Times,serif" font-size="14.00" fill="#000000"> </text>
<polyline fill="none" stroke="#000000" points="365,-169.5 365,-205.5 "/>
<text text-anchor="middle" x="388" y="-183.8" font-family="Times,serif" font-size="14.00" fill="#000000">74(1)</text>
<polyline fill="none" stroke="#000000" points="411,-169.5 411,-205.5 "/>
<text text-anchor="middle" x="421" y="-183.8" font-family="Times,serif" font-size="14.00" fill="#000000"> </text>
</g>
<!-- 77&#45;&gt;74 -->
<g id="edge13" class="edge">
<title>77:f0&#45;&gt;74:f1</title>
<path fill="none" stroke="#000000" d="M388,-242.5C388,-230.0382 388,-224.6592 388,-215.6281"/>
<polygon fill="#000000" stroke="#000000" points="391.5001,-215.5 388,-205.5 384.5001,-215.5 391.5001,-215.5"/>
</g>
<!-- 81 -->
<g id="node17" class="node">
<title>81</title>
<polygon fill="none" stroke="#000000" points="449,-169.5 449,-205.5 535,-205.5 535,-169.5 449,-169.5"/>
<text text-anchor="middle" x="459" y="-183.8" font-family="Times,serif" font-size="14.00" fill="#000000"> </text>
<polyline fill="none" stroke="#000000" points="469,-169.5 469,-205.5 "/>
<text text-anchor="middle" x="492" y="-183.8" font-family="Times,serif" font-size="14.00" fill="#000000">81(1)</text>
<polyline fill="none" stroke="#000000" points="515,-169.5 515,-205.5 "/>
<text text-anchor="middle" x="525" y="-183.8" font-family="Times,serif" font-size="14.00" fill="#000000"> </text>
</g>
<!-- 97&#45;&gt;81 -->
<g id="edge16" class="edge">
<title>97:f0&#45;&gt;81:f1</title>
<path fill="none" stroke="#000000" d="M492,-242.5C492,-230.0382 492,-224.6592 492,-215.6281"/>
<polygon fill="#000000" stroke="#000000" points="495.5001,-215.5 492,-205.5 488.5001,-215.5 495.5001,-215.5"/>
</g>
<!-- 67 -->
<g id="node15" class="node">
<title>67</title>
<polygon fill="none" stroke="#000000" points="312,-96.5 312,-132.5 398,-132.5 398,-96.5 312,-96.5"/>
<text text-anchor="middle" x="322" y="-110.8" font-family="Times,serif" font-size="14.00" fill="#000000"> </text>
<polyline fill="none" stroke="#000000" points="332,-96.5 332,-132.5 "/>
<text text-anchor="middle" x="355" y="-110.8" font-family="Times,serif" font-size="14.00" fill="#000000">67(1)</text>
<polyline fill="none" stroke="#000000" points="378,-96.5 378,-132.5 "/>
<text text-anchor="middle" x="388" y="-110.8" font-family="Times,serif" font-size="14.00" fill="#000000"> </text>
</g>
<!-- 74&#45;&gt;67 -->
<g id="edge14" class="edge">
<title>74:f0&#45;&gt;67:f1</title>
<path fill="none" stroke="#000000" d="M355,-169.5C355,-157.0382 355,-151.6592 355,-142.6281"/>
<polygon fill="#000000" stroke="#000000" points="358.5001,-142.5 355,-132.5 351.5001,-142.5 358.5001,-142.5"/>
</g>
<!-- 73 -->
<g id="node16" class="node">
<title>73</title>
<polygon fill="none" stroke="#000000" points="345,-23.5 345,-59.5 431,-59.5 431,-23.5 345,-23.5"/>
<text text-anchor="middle" x="355" y="-37.8" font-family="Times,serif" font-size="14.00" fill="#000000"> </text>
<polyline fill="none" stroke="#000000" points="365,-23.5 365,-59.5 "/>
<text text-anchor="middle" x="388" y="-37.8" font-family="Times,serif" font-size="14.00" fill="#000000">73(1)</text>
<polyline fill="none" stroke="#000000" points="411,-23.5 411,-59.5 "/>
<text text-anchor="middle" x="421" y="-37.8" font-family="Times,serif" font-size="14.00" fill="#000000"> </text>
</g>
<!-- 67&#45;&gt;73 -->
<g id="edge15" class="edge">
<title>67:f2&#45;&gt;73:f1</title>
<path fill="none" stroke="#000000" d="M388,-96.5C388,-84.0382 388,-78.6592 388,-69.6281"/>
<polygon fill="#000000" stroke="#000000" points="391.5001,-69.5 388,-59.5 384.5001,-69.5 391.5001,-69.5"/>
</g>
<!-- 79 -->
<g id="node18" class="node">
<title>79</title>
<polygon fill="none" stroke="#000000" points="416,-96.5 416,-132.5 502,-132.5 502,-96.5 416,-96.5"/>
<text text-anchor="middle" x="426" y="-110.8" font-family="Times,serif" font-size="14.00" fill="#000000"> </text>
<polyline fill="none" stroke="#000000" points="436,-96.5 436,-132.5 "/>
<text text-anchor="middle" x="459" y="-110.8" font-family="Times,serif" font-size="14.00" fill="#000000">79(1)</text>
<polyline fill="none" stroke="#000000" points="482,-96.5 482,-132.5 "/>
<text text-anchor="middle" x="492" y="-110.8" font-family="Times,serif" font-size="14.00" fill="#000000"> </text>
</g>
<!-- 81&#45;&gt;79 -->
<g id="edge17" class="edge">
<title>81:f0&#45;&gt;79:f1</title>
<path fill="none" stroke="#000000" d="M459,-169.5C459,-157.0382 459,-151.6592 459,-142.6281"/>
<polygon fill="#000000" stroke="#000000" points="462.5001,-142.5 459,-132.5 455.5001,-142.5 462.5001,-142.5"/>
</g>
<!-- 93 -->
<g id="node19" class="node">
<title>93</title>
<polygon fill="none" stroke="#000000" points="520,-96.5 520,-132.5 606,-132.5 606,-96.5 520,-96.5"/>
<text text-anchor="middle" x="530" y="-110.8" font-family="Times,serif" font-size="14.00" fill="#000000"> </text>
<polyline fill="none" stroke="#000000" points="540,-96.5 540,-132.5 "/>
<text text-anchor="middle" x="563" y="-110.8" font-family="Times,serif" font-size="14.00" fill="#000000">93(1)</text>
<polyline fill="none" stroke="#000000" points="586,-96.5 586,-132.5 "/>
<text text-anchor="middle" x="596" y="-110.8" font-family="Times,serif" font-size="14.00" fill="#000000"> </text>
</g>
<!-- 81&#45;&gt;93 -->
<g id="edge18" class="edge">
<title>81:f2&#45;&gt;93:f1</title>
<path fill="none" stroke="#000000" d="M525,-169.5C525,-150.1633 550.5707,-153.5152 559.7601,-142.3323"/>
<polygon fill="#000000" stroke="#000000" points="563.1945,-143.0931 563,-132.5 556.5461,-140.9023 563.1945,-143.0931"/>
</g>
</g>
</svg>
